G04*
G04 #@! TF.GenerationSoftware,Altium Limited,Altium Designer,20.0.13 (296)*
G04*
G04 Layer_Physical_Order=1*
G04 Layer_Color=255*
%FSLAX25Y25*%
%MOIN*%
G70*
G01*
G75*
%ADD11C,0.01000*%
%ADD15C,0.07874*%
%ADD16O,0.09843X0.05906*%
D11*
X256437Y157563D02*
X275000D01*
X251563Y162437D02*
X256437Y157563D01*
X253563Y152437D02*
X258437Y147563D01*
X199563Y152437D02*
X253563D01*
X258437Y147563D02*
X275000D01*
X210000Y134000D02*
Y142000D01*
X199563Y152437D02*
X210000Y142000D01*
X145000Y152437D02*
X199563D01*
X145000Y162437D02*
X251563D01*
X257126Y167563D02*
X275000D01*
X252252Y172437D02*
X257126Y167563D01*
X145000Y172437D02*
X252252D01*
X257563Y177563D02*
X275000D01*
X252689Y182437D02*
X257563Y177563D01*
X145000Y182437D02*
X252689D01*
X258000Y187563D02*
X275000D01*
X253126Y192437D02*
X258000Y187563D01*
X145000Y192437D02*
X253126D01*
D15*
X220000Y134000D02*
D03*
X210000D02*
D03*
X200000D02*
D03*
D16*
X145000Y147437D02*
D03*
Y157437D02*
D03*
Y167437D02*
D03*
Y177437D02*
D03*
Y187437D02*
D03*
X275000Y152563D02*
D03*
Y162563D02*
D03*
Y172563D02*
D03*
Y182563D02*
D03*
Y192563D02*
D03*
M02*
