G04*
G04 #@! TF.GenerationSoftware,Altium Limited,Altium Designer,20.0.13 (296)*
G04*
G04 Layer_Physical_Order=2*
G04 Layer_Color=16711680*
%FSLAX25Y25*%
%MOIN*%
G70*
G01*
G75*
%ADD11C,0.01000*%
%ADD15C,0.07874*%
%ADD16O,0.09843X0.05906*%
D11*
X258000Y152563D02*
X275000D01*
X229437Y124000D02*
X258000Y152563D01*
X204000Y124000D02*
X229437D01*
X200000Y128000D02*
X204000Y124000D01*
X200000Y128000D02*
Y134000D01*
Y140000D01*
X192563Y147437D02*
X200000Y140000D01*
X145000Y147437D02*
X192563D01*
X206563Y157437D02*
X254748D01*
X259874Y162563D01*
X275000D01*
X220000Y134000D02*
Y144000D01*
X206563Y157437D02*
X220000Y144000D01*
X145000Y157437D02*
X206563D01*
X259311Y172563D02*
X275000D01*
X254185Y167437D02*
X259311Y172563D01*
X145000Y167437D02*
X254185D01*
X259437Y182563D02*
X275000D01*
X254311Y177437D02*
X259437Y182563D01*
X145000Y177437D02*
X254311D01*
X260000Y192563D02*
X275000D01*
X254874Y187437D02*
X260000Y192563D01*
X145000Y187437D02*
X254874D01*
D15*
X220000Y134000D02*
D03*
X210000D02*
D03*
X200000D02*
D03*
D16*
X145000Y152437D02*
D03*
Y162437D02*
D03*
Y172437D02*
D03*
Y182437D02*
D03*
Y192437D02*
D03*
X275000Y147563D02*
D03*
Y157563D02*
D03*
Y167563D02*
D03*
Y177563D02*
D03*
Y187563D02*
D03*
M02*
