G04*
G04 #@! TF.GenerationSoftware,Altium Limited,Altium Designer,20.0.13 (296)*
G04*
G04 Layer_Color=65535*
%FSLAX25Y25*%
%MOIN*%
G70*
G01*
G75*
%ADD10C,0.01968*%
%ADD11C,0.01000*%
D10*
X195000Y143000D02*
G03*
X195000Y143000I-79J0D01*
G01*
D11*
X150992Y196937D02*
G03*
X150992Y196937I-492J0D01*
G01*
X269992Y143063D02*
G03*
X269992Y143063I-492J0D01*
G01*
X194000Y128000D02*
Y140000D01*
Y128000D02*
X226000D01*
Y140000D01*
X194000D02*
X226000D01*
X152500Y141063D02*
Y198937D01*
X140000D02*
X152500D01*
X140000Y141063D02*
X152500D01*
X267500Y198937D02*
X280000D01*
X267500Y141063D02*
X280000D01*
X267500D02*
Y198937D01*
X181001Y134999D02*
X179002D01*
X180001D01*
Y130001D01*
X179002Y129001D01*
X178002D01*
X177002Y130001D01*
X183000Y129001D02*
Y134999D01*
X185999D01*
X186999Y133999D01*
Y132000D01*
X185999Y131000D01*
X183000D01*
X188998Y129001D02*
X190998D01*
X189998D01*
Y134999D01*
X188998Y133999D01*
X153002Y202001D02*
Y207999D01*
X155002Y206000D01*
X157001Y207999D01*
Y202001D01*
X159000Y207999D02*
X162999D01*
X161000D01*
Y202001D01*
X164998D02*
X166998D01*
X165998D01*
Y207999D01*
X164998Y206999D01*
X248003Y199001D02*
Y204999D01*
X250002Y203000D01*
X252001Y204999D01*
Y199001D01*
X254001Y204999D02*
X257999D01*
X256000D01*
Y199001D01*
X263997D02*
X259999D01*
X263997Y203000D01*
Y203999D01*
X262998Y204999D01*
X260998D01*
X259999Y203999D01*
M02*
